<svg xmlns="http://www.w3.org/2000/svg" width="{@width}" height="{@height}" viewBox="0 0 50 46" fill="none">
    <path d="M38.8517 17.3125L48.6961 5.0069C49.0271 4.59322 49.2345 4.09447 49.2944 3.5681C49.3543 3.04173 49.2644 2.50914 49.0349 2.03165C48.8054 1.55416 48.4457 1.1512 47.9972 0.869169C47.5488 0.587137 47.0298 0.437504 46.5 0.4375H3.375C2.62909 0.437537 1.91374 0.733865 1.3863 1.2613C0.858865 1.78874 0.562537 2.50409 0.5625 3.25V42.625C0.5625 43.3709 0.858816 44.0863 1.38626 44.6137C1.91371 45.1412 2.62908 45.4375 3.375 45.4375C4.12092 45.4375 4.83629 45.1412 5.36374 44.6137C5.89118 44.0863 6.1875 43.3709 6.1875 42.625V34.1875H46.5C47.0298 34.1875 47.5488 34.0379 47.9972 33.7558C48.4457 33.4738 48.8054 33.0708 49.0349 32.5933C49.2644 32.1159 49.3543 31.5833 49.2944 31.0569C49.2345 30.5305 49.0271 30.0318 48.6961 29.6181L38.8517 17.3125ZM6.1875 28.5625V6.0625H40.6482L33.0539 15.5556C32.6548 16.0542 32.4374 16.6739 32.4374 17.3125C32.4374 17.9511 32.6548 18.5708 33.0539 19.0694L40.6482 28.5625H6.1875Z" fill="#DEE4EC"/>
</svg>