<svg width="{@width}" height="{@height}" viewBox="0 0 21 20" fill="none" xmlns="http://www.w3.org/2000/svg">
    <path d="M6.62333 1.93548C7.1765 1.93548 7.62495 1.50221 7.62495 0.967742C7.62495 0.433277 7.1765 0 6.62333 0V1.93548ZM0.279785 8.70968C0.279785 9.24413 0.728227 9.67742 1.2814 9.67742C1.83457 9.67742 2.28301 9.24413 2.28301 8.70968H0.279785ZM6.62333 0C6.07016 0 5.62172 0.433277 5.62172 0.967742C5.62172 1.50221 6.07016 1.93548 6.62333 1.93548V0ZM18.9766 8.70968C18.9766 9.24413 19.425 9.67742 19.9782 9.67742C20.5313 9.67742 20.9798 9.24413 20.9798 8.70968H18.9766ZM7.62495 0.967742C7.62495 0.433277 7.1765 0 6.62333 0C6.07016 0 5.62172 0.433277 5.62172 0.967742H7.62495ZM5.62172 8.70968C5.62172 9.24413 6.07016 9.67742 6.62333 9.67742C7.1765 9.67742 7.62495 9.24413 7.62495 8.70968H5.62172ZM6.62333 9.67742C7.1765 9.67742 7.62495 9.24413 7.62495 8.70968C7.62495 8.17523 7.1765 7.74194 6.62333 7.74194V9.67742ZM1.2814 7.74194C0.728227 7.74194 0.279785 8.17523 0.279785 8.70968C0.279785 9.24413 0.728227 9.67742 1.2814 9.67742V7.74194ZM6.62333 7.74194C6.07016 7.74194 5.62172 8.17523 5.62172 8.70968C5.62172 9.24413 6.07016 9.67742 6.62333 9.67742V7.74194ZM19.9782 9.67742C20.5313 9.67742 20.9798 9.24413 20.9798 8.70968C20.9798 8.17523 20.5313 7.74194 19.9782 7.74194V9.67742ZM2.28301 8.70968C2.28301 8.17523 1.83457 7.74194 1.2814 7.74194C0.728227 7.74194 0.279785 8.17523 0.279785 8.70968H2.28301ZM20.9798 8.70968C20.9798 8.17523 20.5313 7.74194 19.9782 7.74194C19.425 7.74194 18.9766 8.17523 18.9766 8.70968H20.9798ZM6.62333 0C3.11989 0 0.279785 2.74406 0.279785 6.12903H2.28301C2.28301 3.81299 4.22623 1.93548 6.62333 1.93548V0ZM0.279785 6.12903V8.70968H2.28301V6.12903H0.279785ZM6.62333 1.93548H14.6362V0H6.62333V1.93548ZM14.6362 1.93548C17.0333 1.93548 18.9766 3.81299 18.9766 6.12903H20.9798C20.9798 2.74406 18.1397 0 14.6362 0V1.93548ZM18.9766 6.12903V8.70968H20.9798V6.12903H18.9766ZM5.62172 0.967742V8.70968H7.62495V0.967742H5.62172ZM6.62333 7.74194H1.2814V9.67742H6.62333V7.74194ZM6.62333 9.67742H19.9782V7.74194H6.62333V9.67742ZM0.279785 8.70968V13.871H2.28301V8.70968H0.279785ZM0.279785 13.871C0.279785 17.256 3.11989 20 6.62333 20V18.0645C4.22623 18.0645 2.28301 16.187 2.28301 13.871H0.279785ZM6.62333 20H14.6362V18.0645H6.62333V20ZM14.6362 20C18.1397 20 20.9798 17.256 20.9798 13.871H18.9766C18.9766 16.187 17.0333 18.0645 14.6362 18.0645V20ZM20.9798 13.871V8.70968H18.9766V13.871H20.9798Z" fill="#DEE4EC"/>
</svg>