<svg width="{@width}" height="{@height}" viewBox="0 0 22 22" fill="none" xmlns="http://www.w3.org/2000/svg">
    <path d="M3.72848 15.1369C2.18295 13.5914 1.41018 12.8186 1.12264 11.816C0.835092 10.8134 1.08083 9.7485 1.57231 7.61875L1.85574 6.39057C2.26922 4.59881 2.47597 3.70292 3.08944 3.08944C3.70292 2.47597 4.59881 2.26922 6.39057 1.85574L7.61875 1.57231C9.7485 1.08083 10.8134 0.835092 11.816 1.12264C12.8186 1.41018 13.5914 2.18295 15.1369 3.72848L16.9665 5.55812C19.6555 8.24711 21 9.5916 21 11.2623C21 12.933 19.6555 14.2775 16.9665 16.9665C14.2775 19.6555 12.933 21 11.2623 21C9.5916 21 8.24711 19.6555 5.55812 16.9665L3.72848 15.1369Z" stroke="#DEE4EC" stroke-width="2"/>
    <path d="M9.02145 9.29313C9.8025 8.51208 9.8025 7.24575 9.02145 6.4647C8.2404 5.68365 6.97407 5.68365 6.19302 6.4647C5.41197 7.24575 5.41197 8.51208 6.19302 9.29313C6.97407 10.0742 8.2404 10.0742 9.02145 9.29313Z" stroke="#DEE4EC" stroke-width="2"/>
    <path d="M10.542 17.5L17.5211 10.5208" stroke="#DEE4EC" stroke-width="2" stroke-linecap="round"/>
</svg>