 <svg xmlns="http://www.w3.org/2000/svg" width="{@width}" height="{@height}" viewBox="0 0 52 52" fill="none">
    <path d="M19.5 22C25.0228 22 29.5 17.5228 29.5 12C29.5 6.47715 25.0228 2 19.5 2C13.9772 2 9.5 6.47715 9.5 12C9.5 17.5228 13.9772 22 19.5 22Z" stroke="#DEE4EC" stroke-width="3.75"/>
    <path d="M34.5 19.5C38.6423 19.5 42 16.1421 42 12C42 7.85788 38.6423 4.5 34.5 4.5" stroke="#DEE4EC" stroke-width="3.75" stroke-linecap="round"/>
    <path d="M11.7229 48.4607C14.0657 49.126 16.7064 49.5 19.5 49.5C29.165 49.5 37 45.0228 37 39.5C37 33.9772 29.165 29.5 19.5 29.5C9.83503 29.5 2 33.9772 2 39.5C2 40.3632 2.19143 41.201 2.55133 42" stroke="#DEE4EC" stroke-width="3.75" stroke-linecap="round"/>
    <path d="M42 32C46.3855 32.9618 49.5 35.3972 49.5 38.25C49.5 40.8232 46.9657 43.0572 43.25 44.176" stroke="#DEE4EC" stroke-width="5" stroke-linecap="round"/>
</svg>